<svg xmlns="http://www.w3.org/2000/svg" viewBox="0 0 980 922" width="980" height="922" role="img" aria-label="AGI loop progress dashboard">
<rect width="980" height="922" fill="#101216"/>
<text x="28" y="44" font-family="Segoe UI, system-ui, sans-serif" font-size="20" fill="#e8e4d8" font-weight="600">AGI loop progress — copilot-dl-news ecosystem</text>
<text x="28" y="66" font-family="Segoe UI, system-ui, sans-serif" font-size="12" fill="#8a8778" >generated from IMPROVEMENT_LEDGER.md cycle stanzas · 93 cycles · data through 2026-07-27</text>
<rect x="28" y="84" width="173.6" height="78" rx="6" fill="#171a20" stroke="#232833"/>
<text x="40" y="106" font-family="Segoe UI, system-ui, sans-serif" font-size="11" fill="#8a8778" >Cycles tracked</text>
<text x="40" y="136" font-family="Segoe UI, system-ui, sans-serif" font-size="24" fill="#e8e4d8" font-weight="600">93</text>
<rect x="215.6" y="84" width="173.6" height="78" rx="6" fill="#171a20" stroke="#232833"/>
<text x="227.6" y="106" font-family="Segoe UI, system-ui, sans-serif" font-size="11" fill="#8a8778" >Verified improvements</text>
<text x="227.6" y="136" font-family="Segoe UI, system-ui, sans-serif" font-size="24" fill="#e8e4d8" font-weight="600">129</text>
<text x="227.6" y="154" font-family="Segoe UI, system-ui, sans-serif" font-size="10" fill="#8a8778" >cumulative</text>
<rect x="403.2" y="84" width="173.6" height="78" rx="6" fill="#171a20" stroke="#232833"/>
<text x="415.2" y="106" font-family="Segoe UI, system-ui, sans-serif" font-size="11" fill="#8a8778" >Defects caught pre-ship</text>
<text x="415.2" y="136" font-family="Segoe UI, system-ui, sans-serif" font-size="24" fill="#e8e4d8" font-weight="600">128/144</text>
<text x="415.2" y="154" font-family="Segoe UI, system-ui, sans-serif" font-size="10" fill="#8a8778" >89% before landing</text>
<rect x="590.8" y="84" width="173.6" height="78" rx="6" fill="#171a20" stroke="#232833"/>
<text x="602.8" y="106" font-family="Segoe UI, system-ui, sans-serif" font-size="11" fill="#8a8778" >Corrections issued</text>
<text x="602.8" y="136" font-family="Segoe UI, system-ui, sans-serif" font-size="24" fill="#e8e4d8" font-weight="600">3</text>
<text x="602.8" y="154" font-family="Segoe UI, system-ui, sans-serif" font-size="10" fill="#8a8778" >retractions shown, not hidden</text>
<rect x="778.4" y="84" width="173.6" height="78" rx="6" fill="#171a20" stroke="#232833"/>
<text x="790.4" y="106" font-family="Segoe UI, system-ui, sans-serif" font-size="11" fill="#8a8778" >Pages crawled</text>
<text x="790.4" y="136" font-family="Segoe UI, system-ui, sans-serif" font-size="24" fill="#e8e4d8" font-weight="600">16.9k</text>
<text x="790.4" y="154" font-family="Segoe UI, system-ui, sans-serif" font-size="10" fill="#8a8778" >across measured cycles</text>
<text x="28" y="196" font-family="Segoe UI, system-ui, sans-serif" font-size="13" fill="#e8e4d8" font-weight="600">Cumulative verified improvements</text>
<line x1="64" y1="386" x2="952" y2="386" stroke="#232833" stroke-width="1"/>
<text x="56" y="390" font-family="Segoe UI, system-ui, sans-serif" font-size="10" fill="#8a8778" text-anchor="end">0</text>
<line x1="64" y1="341.5" x2="952" y2="341.5" stroke="#232833" stroke-width="1"/>
<text x="56" y="345.5" font-family="Segoe UI, system-ui, sans-serif" font-size="10" fill="#8a8778" text-anchor="end">33</text>
<line x1="64" y1="297" x2="952" y2="297" stroke="#232833" stroke-width="1"/>
<text x="56" y="301" font-family="Segoe UI, system-ui, sans-serif" font-size="10" fill="#8a8778" text-anchor="end">65</text>
<line x1="64" y1="252.5" x2="952" y2="252.5" stroke="#232833" stroke-width="1"/>
<text x="56" y="256.5" font-family="Segoe UI, system-ui, sans-serif" font-size="10" fill="#8a8778" text-anchor="end">98</text>
<line x1="64" y1="208" x2="952" y2="208" stroke="#232833" stroke-width="1"/>
<text x="56" y="212" font-family="Segoe UI, system-ui, sans-serif" font-size="10" fill="#8a8778" text-anchor="end">130</text>
<path d="M68.8,386 L68.8,383.3 L78.3,380.5 L87.9,379.2 L97.4,377.8 L107,376.4 L116.5,375 L126.1,373.7 L135.6,372.3 L145.2,370.9 L154.7,358.6 L164.3,351.8 L173.8,350.4 L183.4,349 L192.9,347.7 L202.5,346.3 L212,344.9 L221.5,343.6 L231.1,342.2 L240.6,340.8 L250.2,338.1 L259.7,334 L269.3,329.9 L278.8,324.4 L288.4,321.6 L297.9,318.9 L307.5,316.2 L317,313.4 L326.6,309.3 L336.1,308 L345.7,305.2 L355.2,302.5 L364.8,301.1 L374.3,299.7 L383.9,298.4 L393.4,297 L403,295.6 L412.5,294.3 L422.1,292.9 L431.6,291.5 L441.2,290.2 L450.7,288.8 L460.3,287.4 L469.8,286 L479.4,284.7 L488.9,284.7 L498.5,284.7 L508,283.3 L517.5,281.9 L527.1,280.6 L536.6,279.2 L546.2,277.8 L555.7,277.8 L565.3,276.5 L574.8,275.1 L584.4,273.7 L593.9,272.4 L603.5,271 L613,271 L622.6,269.6 L632.1,269.6 L641.7,269.6 L651.2,268.2 L660.8,266.9 L670.3,265.5 L679.9,264.1 L689.4,262.8 L699,261.4 L708.5,260 L718.1,260 L727.6,258.7 L737.2,257.3 L746.7,257.3 L756.3,255.9 L765.8,254.6 L775.4,253.2 L784.9,251.8 L794.5,247.7 L804,245 L813.5,243.6 L823.1,242.2 L832.6,240.9 L842.2,238.1 L851.7,236.8 L861.3,234 L870.8,232.6 L880.4,229.9 L889.9,227.2 L899.5,224.4 L909,220.3 L918.6,217.6 L928.1,214.8 L937.7,212.1 L947.2,209.4 L947.2,386 Z" fill="#b8862e" opacity="0.12"/>
<path d="M68.8,383.3 L78.3,380.5 L87.9,379.2 L97.4,377.8 L107,376.4 L116.5,375 L126.1,373.7 L135.6,372.3 L145.2,370.9 L154.7,358.6 L164.3,351.8 L173.8,350.4 L183.4,349 L192.9,347.7 L202.5,346.3 L212,344.9 L221.5,343.6 L231.1,342.2 L240.6,340.8 L250.2,338.1 L259.7,334 L269.3,329.9 L278.8,324.4 L288.4,321.6 L297.9,318.9 L307.5,316.2 L317,313.4 L326.6,309.3 L336.1,308 L345.7,305.2 L355.2,302.5 L364.8,301.1 L374.3,299.7 L383.9,298.4 L393.4,297 L403,295.6 L412.5,294.3 L422.1,292.9 L431.6,291.5 L441.2,290.2 L450.7,288.8 L460.3,287.4 L469.8,286 L479.4,284.7 L488.9,284.7 L498.5,284.7 L508,283.3 L517.5,281.9 L527.1,280.6 L536.6,279.2 L546.2,277.8 L555.7,277.8 L565.3,276.5 L574.8,275.1 L584.4,273.7 L593.9,272.4 L603.5,271 L613,271 L622.6,269.6 L632.1,269.6 L641.7,269.6 L651.2,268.2 L660.8,266.9 L670.3,265.5 L679.9,264.1 L689.4,262.8 L699,261.4 L708.5,260 L718.1,260 L727.6,258.7 L737.2,257.3 L746.7,257.3 L756.3,255.9 L765.8,254.6 L775.4,253.2 L784.9,251.8 L794.5,247.7 L804,245 L813.5,243.6 L823.1,242.2 L832.6,240.9 L842.2,238.1 L851.7,236.8 L861.3,234 L870.8,232.6 L880.4,229.9 L889.9,227.2 L899.5,224.4 L909,220.3 L918.6,217.6 L928.1,214.8 L937.7,212.1 L947.2,209.4" fill="none" stroke="#b8862e" stroke-width="2" stroke-linejoin="round"/>
<path d="M689.4,257.8 L694.4,262.8 L689.4,267.8 L684.4,262.8 Z" fill="#b34d4d" stroke="#101216" stroke-width="1.5"><title>cycle 110: correction/retraction issued</title></path>
<path d="M708.5,255 L713.5,260 L708.5,265 L703.5,260 Z" fill="#b34d4d" stroke="#101216" stroke-width="1.5"><title>cycle 112: correction/retraction issued</title></path>
<path d="M765.8,249.6 L770.8,254.6 L765.8,259.6 L760.8,254.6 Z" fill="#b34d4d" stroke="#101216" stroke-width="1.5"><title>cycle 118: correction/retraction issued</title></path>
<line x1="670.3" y1="206" x2="670.3" y2="386" stroke="#b8862e" stroke-width="1" stroke-dasharray="3,3" opacity="0.55"/>
<text x="674.3" y="220" font-family="Segoe UI, system-ui, sans-serif" font-size="10" fill="#8a8778" >108 · Concurrency default 3 shipped</text>
<line x1="765.8" y1="206" x2="765.8" y2="386" stroke="#b8862e" stroke-width="1" stroke-dasharray="3,3" opacity="0.55"/>
<text x="769.8" y="233" font-family="Segoe UI, system-ui, sans-serif" font-size="10" fill="#8a8778" >118 · Instrument warm-up bug fixed</text>
<text x="68.8" y="400" font-family="Segoe UI, system-ui, sans-serif" font-size="9" fill="#8a8778" text-anchor="middle">46</text>
<text x="183.4" y="400" font-family="Segoe UI, system-ui, sans-serif" font-size="9" fill="#8a8778" text-anchor="middle">58</text>
<text x="297.9" y="400" font-family="Segoe UI, system-ui, sans-serif" font-size="9" fill="#8a8778" text-anchor="middle">70</text>
<text x="412.5" y="400" font-family="Segoe UI, system-ui, sans-serif" font-size="9" fill="#8a8778" text-anchor="middle">81</text>
<text x="527.1" y="400" font-family="Segoe UI, system-ui, sans-serif" font-size="9" fill="#8a8778" text-anchor="middle">93</text>
<text x="641.7" y="400" font-family="Segoe UI, system-ui, sans-serif" font-size="9" fill="#8a8778" text-anchor="middle">105</text>
<text x="756.3" y="400" font-family="Segoe UI, system-ui, sans-serif" font-size="9" fill="#8a8778" text-anchor="middle">117</text>
<text x="870.8" y="400" font-family="Segoe UI, system-ui, sans-serif" font-size="9" fill="#8a8778" text-anchor="middle">128.5</text>
<text x="947.2" y="400" font-family="Segoe UI, system-ui, sans-serif" font-size="9" fill="#8a8778" text-anchor="middle">136</text>
<text x="28" y="440" font-family="Segoe UI, system-ui, sans-serif" font-size="13" fill="#e8e4d8" font-weight="600">Defects caught per cycle</text>
<rect x="734" y="430" width="9" height="9" rx="2" fill="#55a377"/>
<text x="747" y="439" font-family="Segoe UI, system-ui, sans-serif" font-size="10" fill="#8a8778" >pre-ship</text>
<rect x="814" y="430" width="9" height="9" rx="2" fill="#b34d4d"/>
<text x="827" y="439" font-family="Segoe UI, system-ui, sans-serif" font-size="10" fill="#8a8778" >post-ship (escaped)</text>
<line x1="64" y1="606" x2="952" y2="606" stroke="#232833" stroke-width="1"/>
<text x="56" y="610" font-family="Segoe UI, system-ui, sans-serif" font-size="10" fill="#8a8778" text-anchor="end">0</text>
<line x1="64" y1="513.6" x2="952" y2="513.6" stroke="#232833" stroke-width="1"/>
<text x="56" y="517.6" font-family="Segoe UI, system-ui, sans-serif" font-size="10" fill="#8a8778" text-anchor="end">3</text>
<line x1="64" y1="452" x2="952" y2="452" stroke="#232833" stroke-width="1"/>
<text x="56" y="456" font-family="Segoe UI, system-ui, sans-serif" font-size="10" fill="#8a8778" text-anchor="end">5</text>
<rect x="75.2" y="575.2" width="6.3" height="30.8" rx="1.5" fill="#55a377"><title>cycle 47: 1 pre-ship</title></rect>
<rect x="180.2" y="575.2" width="6.3" height="30.8" rx="1.5" fill="#55a377"><title>cycle 58: 1 pre-ship</title></rect>
<rect x="189.8" y="513.6" width="6.3" height="92.4" rx="1.5" fill="#55a377"><title>cycle 59: 3 pre-ship</title></rect>
<rect x="199.3" y="544.4" width="6.3" height="61.6" rx="1.5" fill="#55a377"><title>cycle 60: 2 pre-ship</title></rect>
<rect x="218.4" y="575.2" width="6.3" height="30.8" rx="1.5" fill="#b34d4d"><title>cycle 62: 1 post-ship</title></rect>
<rect x="227.9" y="575.2" width="6.3" height="30.8" rx="1.5" fill="#55a377"><title>cycle 63: 1 pre-ship</title></rect>
<rect x="247" y="482.8" width="6.3" height="123.2" rx="1.5" fill="#55a377"><title>cycle 65: 4 pre-ship</title></rect>
<rect x="266.1" y="575.2" width="6.3" height="30.8" rx="1.5" fill="#55a377"><title>cycle 67: 1 pre-ship</title></rect>
<rect x="275.7" y="513.6" width="6.3" height="92.4" rx="1.5" fill="#55a377"><title>cycle 68: 3 pre-ship</title></rect>
<rect x="285.2" y="575.2" width="6.3" height="30.8" rx="1.5" fill="#b34d4d"><title>cycle 69: 1 post-ship</title></rect>
<rect x="294.8" y="544.4" width="6.3" height="61.6" rx="1.5" fill="#b34d4d"><title>cycle 70: 2 post-ship</title></rect>
<rect x="304.3" y="575.2" width="6.3" height="30.8" rx="1.5" fill="#55a377"><title>cycle 71: 1 pre-ship</title></rect>
<rect x="313.9" y="482.8" width="6.3" height="123.2" rx="1.5" fill="#55a377"><title>cycle 72: 4 pre-ship</title></rect>
<rect x="323.4" y="513.6" width="6.3" height="92.4" rx="1.5" fill="#55a377"><title>cycle 73: 3 pre-ship</title></rect>
<rect x="333" y="544.4" width="6.3" height="61.6" rx="1.5" fill="#55a377"><title>cycle 73.5: 2 pre-ship</title></rect>
<rect x="342.5" y="513.6" width="6.3" height="92.4" rx="1.5" fill="#55a377"><title>cycle 74: 3 pre-ship</title></rect>
<rect x="352.1" y="544.4" width="6.3" height="61.6" rx="1.5" fill="#55a377"><title>cycle 75: 2 pre-ship</title></rect>
<rect x="380.7" y="575.2" width="6.3" height="30.8" rx="1.5" fill="#55a377"><title>cycle 78: 1 pre-ship</title></rect>
<rect x="380.7" y="542.4" width="6.3" height="30.8" rx="1.5" fill="#b34d4d"><title>cycle 78: 1 post-ship</title></rect>
<rect x="390.3" y="544.4" width="6.3" height="61.6" rx="1.5" fill="#55a377"><title>cycle 79: 2 pre-ship</title></rect>
<rect x="399.8" y="513.6" width="6.3" height="92.4" rx="1.5" fill="#55a377"><title>cycle 80: 3 pre-ship</title></rect>
<rect x="409.4" y="575.2" width="6.3" height="30.8" rx="1.5" fill="#55a377"><title>cycle 81: 1 pre-ship</title></rect>
<rect x="418.9" y="544.4" width="6.3" height="61.6" rx="1.5" fill="#55a377"><title>cycle 82: 2 pre-ship</title></rect>
<rect x="428.5" y="513.6" width="6.3" height="92.4" rx="1.5" fill="#55a377"><title>cycle 83: 3 pre-ship</title></rect>
<rect x="438" y="544.4" width="6.3" height="61.6" rx="1.5" fill="#55a377"><title>cycle 84: 2 pre-ship</title></rect>
<rect x="447.6" y="544.4" width="6.3" height="61.6" rx="1.5" fill="#55a377"><title>cycle 85: 2 pre-ship</title></rect>
<rect x="447.6" y="480.8" width="6.3" height="61.6" rx="1.5" fill="#b34d4d"><title>cycle 85: 2 post-ship</title></rect>
<rect x="457.1" y="544.4" width="6.3" height="61.6" rx="1.5" fill="#55a377"><title>cycle 86: 2 pre-ship</title></rect>
<rect x="457.1" y="480.8" width="6.3" height="61.6" rx="1.5" fill="#b34d4d"><title>cycle 86: 2 post-ship</title></rect>
<rect x="466.7" y="575.2" width="6.3" height="30.8" rx="1.5" fill="#55a377"><title>cycle 87: 1 pre-ship</title></rect>
<rect x="485.8" y="575.2" width="6.3" height="30.8" rx="1.5" fill="#55a377"><title>cycle 89: 1 pre-ship</title></rect>
<rect x="495.3" y="544.4" width="6.3" height="61.6" rx="1.5" fill="#55a377"><title>cycle 90: 2 pre-ship</title></rect>
<rect x="504.8" y="513.6" width="6.3" height="92.4" rx="1.5" fill="#55a377"><title>cycle 91: 3 pre-ship</title></rect>
<rect x="514.4" y="575.2" width="6.3" height="30.8" rx="1.5" fill="#55a377"><title>cycle 92: 1 pre-ship</title></rect>
<rect x="533.5" y="513.6" width="6.3" height="92.4" rx="1.5" fill="#55a377"><title>cycle 94: 3 pre-ship</title></rect>
<rect x="543" y="575.2" width="6.3" height="30.8" rx="1.5" fill="#55a377"><title>cycle 95: 1 pre-ship</title></rect>
<rect x="552.6" y="544.4" width="6.3" height="61.6" rx="1.5" fill="#55a377"><title>cycle 96: 2 pre-ship</title></rect>
<rect x="552.6" y="511.6" width="6.3" height="30.8" rx="1.5" fill="#b34d4d"><title>cycle 96: 1 post-ship</title></rect>
<rect x="562.1" y="544.4" width="6.3" height="61.6" rx="1.5" fill="#55a377"><title>cycle 97: 2 pre-ship</title></rect>
<rect x="571.7" y="482.8" width="6.3" height="123.2" rx="1.5" fill="#55a377"><title>cycle 98: 4 pre-ship</title></rect>
<rect x="571.7" y="450" width="6.3" height="30.8" rx="1.5" fill="#b34d4d"><title>cycle 98: 1 post-ship</title></rect>
<rect x="581.2" y="513.6" width="6.3" height="92.4" rx="1.5" fill="#55a377"><title>cycle 99: 3 pre-ship</title></rect>
<rect x="590.8" y="513.6" width="6.3" height="92.4" rx="1.5" fill="#55a377"><title>cycle 100: 3 pre-ship</title></rect>
<rect x="600.3" y="482.8" width="6.3" height="123.2" rx="1.5" fill="#55a377"><title>cycle 101: 4 pre-ship</title></rect>
<rect x="600.3" y="450" width="6.3" height="30.8" rx="1.5" fill="#b34d4d"><title>cycle 101: 1 post-ship</title></rect>
<rect x="609.9" y="513.6" width="6.3" height="92.4" rx="1.5" fill="#55a377"><title>cycle 102: 3 pre-ship</title></rect>
<rect x="619.4" y="544.4" width="6.3" height="61.6" rx="1.5" fill="#55a377"><title>cycle 103: 2 pre-ship</title></rect>
<rect x="629" y="482.8" width="6.3" height="123.2" rx="1.5" fill="#55a377"><title>cycle 104: 4 pre-ship</title></rect>
<rect x="638.5" y="544.4" width="6.3" height="61.6" rx="1.5" fill="#55a377"><title>cycle 105: 2 pre-ship</title></rect>
<rect x="638.5" y="511.6" width="6.3" height="30.8" rx="1.5" fill="#b34d4d"><title>cycle 105: 1 post-ship</title></rect>
<rect x="648.1" y="544.4" width="6.3" height="61.6" rx="1.5" fill="#55a377"><title>cycle 106: 2 pre-ship</title></rect>
<rect x="657.6" y="544.4" width="6.3" height="61.6" rx="1.5" fill="#55a377"><title>cycle 107: 2 pre-ship</title></rect>
<rect x="667.2" y="575.2" width="6.3" height="30.8" rx="1.5" fill="#55a377"><title>cycle 108: 1 pre-ship</title></rect>
<rect x="676.7" y="575.2" width="6.3" height="30.8" rx="1.5" fill="#55a377"><title>cycle 109: 1 pre-ship</title></rect>
<rect x="686.3" y="575.2" width="6.3" height="30.8" rx="1.5" fill="#55a377"><title>cycle 110: 1 pre-ship</title></rect>
<rect x="695.8" y="544.4" width="6.3" height="61.6" rx="1.5" fill="#55a377"><title>cycle 111: 2 pre-ship</title></rect>
<rect x="705.4" y="544.4" width="6.3" height="61.6" rx="1.5" fill="#55a377"><title>cycle 112: 2 pre-ship</title></rect>
<rect x="714.9" y="513.6" width="6.3" height="92.4" rx="1.5" fill="#55a377"><title>cycle 113: 3 pre-ship</title></rect>
<rect x="724.5" y="482.8" width="6.3" height="123.2" rx="1.5" fill="#55a377"><title>cycle 114: 4 pre-ship</title></rect>
<rect x="734" y="544.4" width="6.3" height="61.6" rx="1.5" fill="#55a377"><title>cycle 115: 2 pre-ship</title></rect>
<rect x="743.6" y="513.6" width="6.3" height="92.4" rx="1.5" fill="#55a377"><title>cycle 116: 3 pre-ship</title></rect>
<rect x="753.1" y="482.8" width="6.3" height="123.2" rx="1.5" fill="#55a377"><title>cycle 117: 4 pre-ship</title></rect>
<rect x="762.7" y="544.4" width="6.3" height="61.6" rx="1.5" fill="#55a377"><title>cycle 118: 2 pre-ship</title></rect>
<rect x="791.3" y="544.4" width="6.3" height="61.6" rx="1.5" fill="#55a377"><title>cycle 121: 2 pre-ship</title></rect>
<rect x="791.3" y="511.6" width="6.3" height="30.8" rx="1.5" fill="#b34d4d"><title>cycle 121: 1 post-ship</title></rect>
<rect x="800.8" y="544.4" width="6.3" height="61.6" rx="1.5" fill="#55a377"><title>cycle 122: 2 pre-ship</title></rect>
<rect x="839" y="575.2" width="6.3" height="30.8" rx="1.5" fill="#b34d4d"><title>cycle 126: 1 post-ship</title></rect>
<rect x="848.6" y="575.2" width="6.3" height="30.8" rx="1.5" fill="#55a377"><title>cycle 127: 1 pre-ship</title></rect>
<rect x="858.1" y="575.2" width="6.3" height="30.8" rx="1.5" fill="#55a377"><title>cycle 128: 1 pre-ship</title></rect>
<rect x="867.7" y="575.2" width="6.3" height="30.8" rx="1.5" fill="#b34d4d"><title>cycle 128.5: 1 post-ship</title></rect>
<rect x="925" y="575.2" width="6.3" height="30.8" rx="1.5" fill="#55a377"><title>cycle 134: 1 pre-ship</title></rect>
<rect x="934.5" y="544.4" width="6.3" height="61.6" rx="1.5" fill="#55a377"><title>cycle 135: 2 pre-ship</title></rect>
<text x="68.8" y="620" font-family="Segoe UI, system-ui, sans-serif" font-size="9" fill="#8a8778" text-anchor="middle">46</text>
<text x="183.4" y="620" font-family="Segoe UI, system-ui, sans-serif" font-size="9" fill="#8a8778" text-anchor="middle">58</text>
<text x="297.9" y="620" font-family="Segoe UI, system-ui, sans-serif" font-size="9" fill="#8a8778" text-anchor="middle">70</text>
<text x="412.5" y="620" font-family="Segoe UI, system-ui, sans-serif" font-size="9" fill="#8a8778" text-anchor="middle">81</text>
<text x="527.1" y="620" font-family="Segoe UI, system-ui, sans-serif" font-size="9" fill="#8a8778" text-anchor="middle">93</text>
<text x="641.7" y="620" font-family="Segoe UI, system-ui, sans-serif" font-size="9" fill="#8a8778" text-anchor="middle">105</text>
<text x="756.3" y="620" font-family="Segoe UI, system-ui, sans-serif" font-size="9" fill="#8a8778" text-anchor="middle">117</text>
<text x="870.8" y="620" font-family="Segoe UI, system-ui, sans-serif" font-size="9" fill="#8a8778" text-anchor="middle">128.5</text>
<text x="947.2" y="620" font-family="Segoe UI, system-ui, sans-serif" font-size="9" fill="#8a8778" text-anchor="middle">136</text>
<line x1="64" y1="606" x2="952" y2="606" stroke="#2e3440" stroke-width="1"/>
<text x="28" y="656" font-family="Segoe UI, system-ui, sans-serif" font-size="13" fill="#e8e4d8" font-weight="600">Repo activity — commits landed per day</text>
<text x="296" y="656" font-family="Segoe UI, system-ui, sans-serif" font-size="10" fill="#8a8778" >2026-07-21 → 2026-07-27 · landing date, not work date (bulk catch-up commits cluster)</text>
<text x="252" y="679" font-family="Segoe UI, system-ui, sans-serif" font-size="10" fill="#e8e4d8" text-anchor="end">copilot-dl-news</text>
<rect x="262" y="668" width="96.6" height="14" rx="2" fill="#171a20" stroke="#232833" stroke-width="0.5"/>
<rect x="360.6" y="668" width="96.6" height="14" rx="2" fill="#171a20" stroke="#232833" stroke-width="0.5"/>
<rect x="459.1" y="668" width="96.6" height="14" rx="2" fill="#171a20" stroke="#232833" stroke-width="0.5"/>
<rect x="557.7" y="668" width="96.6" height="14" rx="2" fill="#171a20" stroke="#232833" stroke-width="0.5"/>
<rect x="656.3" y="668" width="96.6" height="14" rx="2" fill="#171a20" stroke="#232833" stroke-width="0.5"/>
<rect x="754.9" y="668" width="96.6" height="14" rx="2" fill="#171a20" stroke="#232833" stroke-width="0.5"/>
<rect x="853.4" y="668" width="96.6" height="14" rx="2" fill="#b8862e" opacity="1"><title>copilot-dl-news · 2026-07-27 · 18 commits</title></rect>
<text x="252" y="695" font-family="Segoe UI, system-ui, sans-serif" font-size="10" fill="#e8e4d8" text-anchor="end">news-crawler-itself</text>
<rect x="262" y="684" width="96.6" height="14" rx="2" fill="#171a20" stroke="#232833" stroke-width="0.5"/>
<rect x="360.6" y="684" width="96.6" height="14" rx="2" fill="#171a20" stroke="#232833" stroke-width="0.5"/>
<rect x="459.1" y="684" width="96.6" height="14" rx="2" fill="#171a20" stroke="#232833" stroke-width="0.5"/>
<rect x="557.7" y="684" width="96.6" height="14" rx="2" fill="#171a20" stroke="#232833" stroke-width="0.5"/>
<rect x="656.3" y="684" width="96.6" height="14" rx="2" fill="#171a20" stroke="#232833" stroke-width="0.5"/>
<rect x="754.9" y="684" width="96.6" height="14" rx="2" fill="#171a20" stroke="#232833" stroke-width="0.5"/>
<rect x="853.4" y="684" width="96.6" height="14" rx="2" fill="#b8862e" opacity="0.4"><title>news-crawler-itself · 2026-07-27 · 2 commits</title></rect>
<text x="252" y="711" font-family="Segoe UI, system-ui, sans-serif" font-size="10" fill="#e8e4d8" text-anchor="end">news-crawler-db</text>
<rect x="262" y="700" width="96.6" height="14" rx="2" fill="#171a20" stroke="#232833" stroke-width="0.5"/>
<rect x="360.6" y="700" width="96.6" height="14" rx="2" fill="#171a20" stroke="#232833" stroke-width="0.5"/>
<rect x="459.1" y="700" width="96.6" height="14" rx="2" fill="#171a20" stroke="#232833" stroke-width="0.5"/>
<rect x="557.7" y="700" width="96.6" height="14" rx="2" fill="#171a20" stroke="#232833" stroke-width="0.5"/>
<rect x="656.3" y="700" width="96.6" height="14" rx="2" fill="#171a20" stroke="#232833" stroke-width="0.5"/>
<rect x="754.9" y="700" width="96.6" height="14" rx="2" fill="#171a20" stroke="#232833" stroke-width="0.5"/>
<rect x="853.4" y="700" width="96.6" height="14" rx="2" fill="#b8862e" opacity="0.4"><title>news-crawler-db · 2026-07-27 · 2 commits</title></rect>
<text x="252" y="727" font-family="Segoe UI, system-ui, sans-serif" font-size="10" fill="#8a8778" text-anchor="end">news-db-pure-analysis</text>
<rect x="262" y="716" width="96.6" height="14" rx="2" fill="#171a20" stroke="#232833" stroke-width="0.5"/>
<rect x="360.6" y="716" width="96.6" height="14" rx="2" fill="#171a20" stroke="#232833" stroke-width="0.5"/>
<rect x="459.1" y="716" width="96.6" height="14" rx="2" fill="#171a20" stroke="#232833" stroke-width="0.5"/>
<rect x="557.7" y="716" width="96.6" height="14" rx="2" fill="#171a20" stroke="#232833" stroke-width="0.5"/>
<rect x="656.3" y="716" width="96.6" height="14" rx="2" fill="#171a20" stroke="#232833" stroke-width="0.5"/>
<rect x="754.9" y="716" width="96.6" height="14" rx="2" fill="#171a20" stroke="#232833" stroke-width="0.5"/>
<rect x="853.4" y="716" width="96.6" height="14" rx="2" fill="#171a20" stroke="#232833" stroke-width="0.5"/>
<text x="252" y="743" font-family="Segoe UI, system-ui, sans-serif" font-size="10" fill="#8a8778" text-anchor="end">news-db-analysis</text>
<rect x="262" y="732" width="96.6" height="14" rx="2" fill="#171a20" stroke="#232833" stroke-width="0.5"/>
<rect x="360.6" y="732" width="96.6" height="14" rx="2" fill="#171a20" stroke="#232833" stroke-width="0.5"/>
<rect x="459.1" y="732" width="96.6" height="14" rx="2" fill="#171a20" stroke="#232833" stroke-width="0.5"/>
<rect x="557.7" y="732" width="96.6" height="14" rx="2" fill="#171a20" stroke="#232833" stroke-width="0.5"/>
<rect x="656.3" y="732" width="96.6" height="14" rx="2" fill="#171a20" stroke="#232833" stroke-width="0.5"/>
<rect x="754.9" y="732" width="96.6" height="14" rx="2" fill="#171a20" stroke="#232833" stroke-width="0.5"/>
<rect x="853.4" y="732" width="96.6" height="14" rx="2" fill="#171a20" stroke="#232833" stroke-width="0.5"/>
<text x="252" y="759" font-family="Segoe UI, system-ui, sans-serif" font-size="10" fill="#8a8778" text-anchor="end">news-crawler-document-intelligence</text>
<rect x="262" y="748" width="96.6" height="14" rx="2" fill="#171a20" stroke="#232833" stroke-width="0.5"/>
<rect x="360.6" y="748" width="96.6" height="14" rx="2" fill="#171a20" stroke="#232833" stroke-width="0.5"/>
<rect x="459.1" y="748" width="96.6" height="14" rx="2" fill="#171a20" stroke="#232833" stroke-width="0.5"/>
<rect x="557.7" y="748" width="96.6" height="14" rx="2" fill="#171a20" stroke="#232833" stroke-width="0.5"/>
<rect x="656.3" y="748" width="96.6" height="14" rx="2" fill="#171a20" stroke="#232833" stroke-width="0.5"/>
<rect x="754.9" y="748" width="96.6" height="14" rx="2" fill="#171a20" stroke="#232833" stroke-width="0.5"/>
<rect x="853.4" y="748" width="96.6" height="14" rx="2" fill="#171a20" stroke="#232833" stroke-width="0.5"/>
<text x="252" y="775" font-family="Segoe UI, system-ui, sans-serif" font-size="10" fill="#8a8778" text-anchor="end">news-crawler-url-intelligence</text>
<rect x="262" y="764" width="96.6" height="14" rx="2" fill="#171a20" stroke="#232833" stroke-width="0.5"/>
<rect x="360.6" y="764" width="96.6" height="14" rx="2" fill="#171a20" stroke="#232833" stroke-width="0.5"/>
<rect x="459.1" y="764" width="96.6" height="14" rx="2" fill="#171a20" stroke="#232833" stroke-width="0.5"/>
<rect x="557.7" y="764" width="96.6" height="14" rx="2" fill="#171a20" stroke="#232833" stroke-width="0.5"/>
<rect x="656.3" y="764" width="96.6" height="14" rx="2" fill="#171a20" stroke="#232833" stroke-width="0.5"/>
<rect x="754.9" y="764" width="96.6" height="14" rx="2" fill="#171a20" stroke="#232833" stroke-width="0.5"/>
<rect x="853.4" y="764" width="96.6" height="14" rx="2" fill="#171a20" stroke="#232833" stroke-width="0.5"/>
<text x="252" y="791" font-family="Segoe UI, system-ui, sans-serif" font-size="10" fill="#8a8778" text-anchor="end">news-crawler-places-intelligence</text>
<rect x="262" y="780" width="96.6" height="14" rx="2" fill="#171a20" stroke="#232833" stroke-width="0.5"/>
<rect x="360.6" y="780" width="96.6" height="14" rx="2" fill="#171a20" stroke="#232833" stroke-width="0.5"/>
<rect x="459.1" y="780" width="96.6" height="14" rx="2" fill="#171a20" stroke="#232833" stroke-width="0.5"/>
<rect x="557.7" y="780" width="96.6" height="14" rx="2" fill="#171a20" stroke="#232833" stroke-width="0.5"/>
<rect x="656.3" y="780" width="96.6" height="14" rx="2" fill="#171a20" stroke="#232833" stroke-width="0.5"/>
<rect x="754.9" y="780" width="96.6" height="14" rx="2" fill="#171a20" stroke="#232833" stroke-width="0.5"/>
<rect x="853.4" y="780" width="96.6" height="14" rx="2" fill="#171a20" stroke="#232833" stroke-width="0.5"/>
<text x="252" y="807" font-family="Segoe UI, system-ui, sans-serif" font-size="10" fill="#8a8778" text-anchor="end">news-crawler-general-intelligence</text>
<rect x="262" y="796" width="96.6" height="14" rx="2" fill="#171a20" stroke="#232833" stroke-width="0.5"/>
<rect x="360.6" y="796" width="96.6" height="14" rx="2" fill="#171a20" stroke="#232833" stroke-width="0.5"/>
<rect x="459.1" y="796" width="96.6" height="14" rx="2" fill="#171a20" stroke="#232833" stroke-width="0.5"/>
<rect x="557.7" y="796" width="96.6" height="14" rx="2" fill="#171a20" stroke="#232833" stroke-width="0.5"/>
<rect x="656.3" y="796" width="96.6" height="14" rx="2" fill="#171a20" stroke="#232833" stroke-width="0.5"/>
<rect x="754.9" y="796" width="96.6" height="14" rx="2" fill="#171a20" stroke="#232833" stroke-width="0.5"/>
<rect x="853.4" y="796" width="96.6" height="14" rx="2" fill="#171a20" stroke="#232833" stroke-width="0.5"/>
<text x="252" y="823" font-family="Segoe UI, system-ui, sans-serif" font-size="10" fill="#8a8778" text-anchor="end">news-dev-tools</text>
<rect x="262" y="812" width="96.6" height="14" rx="2" fill="#171a20" stroke="#232833" stroke-width="0.5"/>
<rect x="360.6" y="812" width="96.6" height="14" rx="2" fill="#171a20" stroke="#232833" stroke-width="0.5"/>
<rect x="459.1" y="812" width="96.6" height="14" rx="2" fill="#171a20" stroke="#232833" stroke-width="0.5"/>
<rect x="557.7" y="812" width="96.6" height="14" rx="2" fill="#171a20" stroke="#232833" stroke-width="0.5"/>
<rect x="656.3" y="812" width="96.6" height="14" rx="2" fill="#171a20" stroke="#232833" stroke-width="0.5"/>
<rect x="754.9" y="812" width="96.6" height="14" rx="2" fill="#171a20" stroke="#232833" stroke-width="0.5"/>
<rect x="853.4" y="812" width="96.6" height="14" rx="2" fill="#171a20" stroke="#232833" stroke-width="0.5"/>
<text x="252" y="839" font-family="Segoe UI, system-ui, sans-serif" font-size="10" fill="#e8e4d8" text-anchor="end" font-style="italic">jsgui3-html</text>
<rect x="262" y="828" width="96.6" height="14" rx="2" fill="#171a20" stroke="#232833" stroke-width="0.5"/>
<rect x="360.6" y="828" width="96.6" height="14" rx="2" fill="#171a20" stroke="#232833" stroke-width="0.5"/>
<rect x="459.1" y="828" width="96.6" height="14" rx="2" fill="#171a20" stroke="#232833" stroke-width="0.5"/>
<rect x="557.7" y="828" width="96.6" height="14" rx="2" fill="#171a20" stroke="#232833" stroke-width="0.5"/>
<rect x="656.3" y="828" width="96.6" height="14" rx="2" fill="#b8862e" opacity="0.3"><title>jsgui3-html · 2026-07-25 · 1 commit</title></rect>
<rect x="754.9" y="828" width="96.6" height="14" rx="2" fill="#171a20" stroke="#232833" stroke-width="0.5"/>
<rect x="853.4" y="828" width="96.6" height="14" rx="2" fill="#171a20" stroke="#232833" stroke-width="0.5"/>
<text x="252" y="855" font-family="Segoe UI, system-ui, sans-serif" font-size="10" fill="#e8e4d8" text-anchor="end" font-style="italic">jsgui3-server</text>
<rect x="262" y="844" width="96.6" height="14" rx="2" fill="#171a20" stroke="#232833" stroke-width="0.5"/>
<rect x="360.6" y="844" width="96.6" height="14" rx="2" fill="#171a20" stroke="#232833" stroke-width="0.5"/>
<rect x="459.1" y="844" width="96.6" height="14" rx="2" fill="#171a20" stroke="#232833" stroke-width="0.5"/>
<rect x="557.7" y="844" width="96.6" height="14" rx="2" fill="#171a20" stroke="#232833" stroke-width="0.5"/>
<rect x="656.3" y="844" width="96.6" height="14" rx="2" fill="#b8862e" opacity="0.3"><title>jsgui3-server · 2026-07-25 · 1 commit</title></rect>
<rect x="754.9" y="844" width="96.6" height="14" rx="2" fill="#171a20" stroke="#232833" stroke-width="0.5"/>
<rect x="853.4" y="844" width="96.6" height="14" rx="2" fill="#171a20" stroke="#232833" stroke-width="0.5"/>
<text x="252" y="871" font-family="Segoe UI, system-ui, sans-serif" font-size="10" fill="#e8e4d8" text-anchor="end" font-style="italic">jsgui3-ecosystem</text>
<rect x="262" y="860" width="96.6" height="14" rx="2" fill="#171a20" stroke="#232833" stroke-width="0.5"/>
<rect x="360.6" y="860" width="96.6" height="14" rx="2" fill="#171a20" stroke="#232833" stroke-width="0.5"/>
<rect x="459.1" y="860" width="96.6" height="14" rx="2" fill="#171a20" stroke="#232833" stroke-width="0.5"/>
<rect x="557.7" y="860" width="96.6" height="14" rx="2" fill="#171a20" stroke="#232833" stroke-width="0.5"/>
<rect x="656.3" y="860" width="96.6" height="14" rx="2" fill="#b8862e" opacity="0.3"><title>jsgui3-ecosystem · 2026-07-25 · 1 commit</title></rect>
<rect x="754.9" y="860" width="96.6" height="14" rx="2" fill="#171a20" stroke="#232833" stroke-width="0.5"/>
<rect x="853.4" y="860" width="96.6" height="14" rx="2" fill="#171a20" stroke="#232833" stroke-width="0.5"/>
<text x="311.3" y="888" font-family="Segoe UI, system-ui, sans-serif" font-size="9" fill="#8a8778" text-anchor="middle">07-21</text>
<text x="409.9" y="888" font-family="Segoe UI, system-ui, sans-serif" font-size="9" fill="#8a8778" text-anchor="middle">07-22</text>
<text x="508.4" y="888" font-family="Segoe UI, system-ui, sans-serif" font-size="9" fill="#8a8778" text-anchor="middle">07-23</text>
<text x="607" y="888" font-family="Segoe UI, system-ui, sans-serif" font-size="9" fill="#8a8778" text-anchor="middle">07-24</text>
<text x="705.6" y="888" font-family="Segoe UI, system-ui, sans-serif" font-size="9" fill="#8a8778" text-anchor="middle">07-25</text>
<text x="804.1" y="888" font-family="Segoe UI, system-ui, sans-serif" font-size="9" fill="#8a8778" text-anchor="middle">07-26</text>
<text x="902.7" y="888" font-family="Segoe UI, system-ui, sans-serif" font-size="9" fill="#8a8778" text-anchor="middle">07-27</text>
<text x="28" y="904" font-family="Segoe UI, system-ui, sans-serif" font-size="10" fill="#8a8778" >regenerate: node tools/agi/repo-activity.js &amp;&amp; node tools/agi/progress-svg.js · annotate: --annotate &quot;cycleId=label&quot; · red diamonds = corrections/retractions · 1 zero-activity consume-only repo(s) not shown</text>
</svg>